<?xml version="1.0" encoding="UTF-8"?>
<svg version="1.1" xmlns="http://www.w3.org/2000/svg" width="512" height="512">
<path d="M0 0 C0.93457031 0.42410156 1.86914062 0.84820312 2.83203125 1.28515625 C19.65397362 9.73141822 30.99516846 23.31518241 37 41 C37 41.99 37 42.98 37 44 C38.53782355 43.99446924 38.53782355 43.99446924 40.10671425 43.98882675 C65.04424567 43.90005668 89.98175661 43.83431036 114.91941261 43.79275131 C126.97904702 43.77211985 139.03857709 43.74398795 151.09814453 43.69824219 C161.60838972 43.65839248 172.11855936 43.63257144 182.628878 43.62364602 C188.19482549 43.61842815 193.76055683 43.60615185 199.32643509 43.57707977 C204.56472569 43.54994032 209.80271098 43.54155211 215.04106522 43.54756927 C216.96395527 43.54646839 218.88685548 43.53850585 220.80968475 43.5231781 C223.4353982 43.50327315 226.05995929 43.50806251 228.68569946 43.51898193 C229.44641207 43.50733057 230.20712468 43.4956792 230.99088919 43.48367476 C236.14377516 43.54158771 239.01750558 44.77893122 243 48 C246.62833663 51.81930172 247.31000458 54.88279006 247.5 60 C247.31000458 65.11720994 246.62833663 68.18069828 243 72 C238.28230851 75.8157012 234.59285055 76.57149426 228.68569946 76.48101807 C227.86386244 76.48443577 227.04202542 76.48785347 226.19528425 76.49137473 C223.44965551 76.49794774 220.70501087 76.4759875 217.95947266 76.45410156 C215.98816959 76.45297296 214.01686484 76.4536072 212.04556274 76.45587158 C206.69883365 76.45701915 201.35246356 76.43350272 196.00581789 76.40557575 C190.4164439 76.38056933 184.82706167 76.37822069 179.23764038 76.37347412 C168.6554698 76.36104214 158.07346453 76.32821741 147.49136674 76.28807616 C135.44311257 76.24336547 123.3948505 76.22137316 111.34653401 76.20129442 C86.56426436 76.15948508 61.78214144 76.08912858 37 76 C36.86207031 76.92272705 36.72414062 77.8454541 36.58203125 78.79614258 C33.94424379 93.31614461 22.63940357 105.83182383 11.04296875 114.0625 C-0.09854657 121.15645584 -12.07306784 124.58866175 -25.25 124.5 C-26.25071533 124.49427979 -27.25143066 124.48855957 -28.2824707 124.48266602 C-44.35450048 124.09855136 -59.11732227 117.37200919 -70.83984375 106.3515625 C-78.00942053 98.54670676 -87 86.96153568 -87 76 C-87.88869781 76.00888245 -88.77739563 76.01776489 -89.69302368 76.0269165 C-98.07930352 76.10715517 -106.46545393 76.16801153 -114.8520298 76.20724869 C-119.16340166 76.22809934 -123.47445562 76.25637042 -127.78564453 76.30175781 C-131.9483387 76.34530627 -136.11072761 76.36915608 -140.27363205 76.37950897 C-141.8596413 76.38688426 -143.44563436 76.4012867 -145.03151321 76.42292023 C-147.25786329 76.4520753 -149.48296155 76.45595117 -151.70947266 76.45410156 C-153.60809555 76.46742523 -153.60809555 76.46742523 -155.54507446 76.48101807 C-160.77313968 75.75313152 -163.80689121 73.25590399 -167.375 69.5 C-169.77303575 64.33499991 -169.75381535 59.5997712 -169 54 C-166.69090827 49.02657165 -163.72357301 46.67389163 -159 44 C-155.54507446 43.51898193 -155.54507446 43.51898193 -151.70947266 43.54589844 C-151.00633942 43.54531433 -150.30320618 43.54473022 -149.57876587 43.54412842 C-147.27334825 43.54689723 -144.96925193 43.5779291 -142.6640625 43.609375 C-141.05838731 43.61684174 -139.45270297 43.62253263 -137.84701538 43.62652588 C-133.63493385 43.64174828 -129.42341006 43.6810001 -125.21154785 43.7253418 C-120.90803572 43.76636825 -116.60443286 43.78455258 -112.30078125 43.8046875 C-103.86693246 43.8474983 -95.43353575 43.91570765 -87 44 C-86.86207031 43.07727295 -86.72414063 42.1545459 -86.58203125 41.20385742 C-83.9592619 26.76652431 -72.71679825 14.21361406 -61.1875 6.0078125 C-43.48925166 -5.14034883 -19.53555901 -8.94566968 0 0 Z M-50 40 C-55.95684175 48.77226447 -56.80860965 56.46529681 -56 67 C-53.81622185 76.24674063 -48.84101899 82.43138233 -40.875 87.375 C-33.01458088 91.95412267 -23.95137226 92.40551976 -15.10546875 90.31640625 C-5.22194214 86.65752774 0.3956627 80.36318257 5 71 C7.77466577 62.8609804 6.86936703 52.85436893 3.25 45.17578125 C-1.085993 37.62844344 -7.55502726 32.1971498 -15.890625 29.35546875 C-29.18218706 27.1155944 -40.96260706 29.71745515 -50 40 Z " fill="#446EC5" transform="translate(217,340)"/>
<path d="M0 0 C0.93457031 0.42410156 1.86914062 0.84820312 2.83203125 1.28515625 C19.65397362 9.73141822 30.99516846 23.31518241 37 41 C37 41.99 37 42.98 37 44 C37.88869781 43.99111755 38.77739563 43.98223511 39.69302368 43.9730835 C48.07930352 43.89284483 56.46545393 43.83198847 64.8520298 43.79275131 C69.16340166 43.77190066 73.47445562 43.74362958 77.78564453 43.69824219 C81.9483387 43.65469373 86.11072761 43.63084392 90.27363205 43.62049103 C91.8596413 43.61311574 93.44563436 43.5987133 95.03151321 43.57707977 C97.25786329 43.5479247 99.48296155 43.54404883 101.70947266 43.54589844 C103.60809555 43.53257477 103.60809555 43.53257477 105.54507446 43.51898193 C110.77313968 44.24686848 113.80689121 46.74409601 117.375 50.5 C119.77303575 55.66500009 119.75381535 60.4002288 119 66 C116.69090827 70.97342835 113.72357301 73.32610837 109 76 C105.54507446 76.48101807 105.54507446 76.48101807 101.70947266 76.45410156 C101.00633942 76.45468567 100.30320618 76.45526978 99.57876587 76.45587158 C97.27334825 76.45310277 94.96925193 76.4220709 92.6640625 76.390625 C91.05838731 76.38315826 89.45270297 76.37746737 87.84701538 76.37347412 C83.63493385 76.35825172 79.42341006 76.3189999 75.21154785 76.2746582 C70.90803572 76.23363175 66.60443286 76.21544742 62.30078125 76.1953125 C53.86693246 76.1525017 45.43353575 76.08429235 37 76 C36.86207031 76.92272705 36.72414063 77.8454541 36.58203125 78.79614258 C33.94424379 93.31614461 22.63940357 105.83182383 11.04296875 114.0625 C-0.09854657 121.15645584 -12.07306784 124.58866175 -25.25 124.5 C-26.751073 124.49141968 -26.751073 124.49141968 -28.2824707 124.48266602 C-44.35450048 124.09855136 -59.11732227 117.37200919 -70.83984375 106.3515625 C-78.00942053 98.54670676 -87 86.96153568 -87 76 C-88.53782355 76.00553076 -88.53782355 76.00553076 -90.10671425 76.01117325 C-115.04424567 76.09994332 -139.98175661 76.16568964 -164.91941261 76.20724869 C-176.97904702 76.22788015 -189.03857709 76.25601205 -201.09814453 76.30175781 C-211.60838972 76.34160752 -222.11855936 76.36742856 -232.628878 76.37635398 C-238.19482549 76.38157185 -243.76055683 76.39384815 -249.32643509 76.42292023 C-254.56472569 76.45005968 -259.80271098 76.45844789 -265.04106522 76.45243073 C-266.96395527 76.45353161 -268.88685548 76.46149415 -270.80968475 76.4768219 C-273.4353982 76.49672685 -276.05995929 76.49193749 -278.68569946 76.48101807 C-279.82676838 76.49849512 -279.82676838 76.49849512 -280.99088919 76.51632524 C-286.14377516 76.45841229 -289.01750558 75.22106878 -293 72 C-296.62833663 68.18069828 -297.31000458 65.11720994 -297.5 60 C-297.31000458 54.88279006 -296.62833663 51.81930172 -293 48 C-288.28230851 44.1842988 -284.59285055 43.42850574 -278.68569946 43.51898193 C-277.86386244 43.51556423 -277.04202542 43.51214653 -276.19528425 43.50862527 C-273.44965551 43.50205226 -270.70501087 43.5240125 -267.95947266 43.54589844 C-265.98816959 43.54702704 -264.01686484 43.5463928 -262.04556274 43.54412842 C-256.69883365 43.54298085 -251.35246356 43.56649728 -246.00581789 43.59442425 C-240.4164439 43.61943067 -234.82706167 43.62177931 -229.23764038 43.62652588 C-218.6554698 43.63895786 -208.07346453 43.67178259 -197.49136674 43.71192384 C-185.44311257 43.75663453 -173.3948505 43.77862684 -161.34653401 43.79870558 C-136.56426436 43.84051492 -111.78214144 43.91087142 -87 44 C-86.86207031 43.07727295 -86.72414063 42.1545459 -86.58203125 41.20385742 C-83.9592619 26.76652431 -72.71679825 14.21361406 -61.1875 6.0078125 C-43.48925166 -5.14034883 -19.53555901 -8.94566968 0 0 Z M-50 40 C-55.95684175 48.77226447 -56.80860965 56.46529681 -56 67 C-53.81622185 76.24674063 -48.84101899 82.43138233 -40.875 87.375 C-33.01458088 91.95412267 -23.95137226 92.40551976 -15.10546875 90.31640625 C-5.22194214 86.65752774 0.3956627 80.36318257 5 71 C7.77466577 62.8609804 6.86936703 52.85436893 3.25 45.17578125 C-1.085993 37.62844344 -7.55502726 32.1971498 -15.890625 29.35546875 C-29.18218706 27.1155944 -40.96260706 29.71745515 -50 40 Z " fill="#446EC5" transform="translate(345,196)"/>
<path d="M0 0 C0.93457031 0.42410156 1.86914062 0.84820312 2.83203125 1.28515625 C19.65397362 9.73141822 30.99516846 23.31518241 37 41 C37 41.99 37 42.98 37 44 C38.53782355 43.99446924 38.53782355 43.99446924 40.10671425 43.98882675 C65.04424567 43.90005668 89.98175661 43.83431036 114.91941261 43.79275131 C126.97904702 43.77211985 139.03857709 43.74398795 151.09814453 43.69824219 C161.60838972 43.65839248 172.11855936 43.63257144 182.628878 43.62364602 C188.19482549 43.61842815 193.76055683 43.60615185 199.32643509 43.57707977 C204.56472569 43.54994032 209.80271098 43.54155211 215.04106522 43.54756927 C216.96395527 43.54646839 218.88685548 43.53850585 220.80968475 43.5231781 C223.4353982 43.50327315 226.05995929 43.50806251 228.68569946 43.51898193 C229.44641207 43.50733057 230.20712468 43.4956792 230.99088919 43.48367476 C236.14377516 43.54158771 239.01750558 44.77893122 243 48 C246.62833663 51.81930172 247.31000458 54.88279006 247.5 60 C247.31000458 65.11720994 246.62833663 68.18069828 243 72 C238.28230851 75.8157012 234.59285055 76.57149426 228.68569946 76.48101807 C227.86386244 76.48443577 227.04202542 76.48785347 226.19528425 76.49137473 C223.44965551 76.49794774 220.70501087 76.4759875 217.95947266 76.45410156 C215.98816959 76.45297296 214.01686484 76.4536072 212.04556274 76.45587158 C206.69883365 76.45701915 201.35246356 76.43350272 196.00581789 76.40557575 C190.4164439 76.38056933 184.82706167 76.37822069 179.23764038 76.37347412 C168.6554698 76.36104214 158.07346453 76.32821741 147.49136674 76.28807616 C135.44311257 76.24336547 123.3948505 76.22137316 111.34653401 76.20129442 C86.56426436 76.15948508 61.78214144 76.08912858 37 76 C36.86207031 76.92272705 36.72414062 77.8454541 36.58203125 78.79614258 C33.94424379 93.31614461 22.63940357 105.83182383 11.04296875 114.0625 C-0.09854657 121.15645584 -12.07306784 124.58866175 -25.25 124.5 C-26.25071533 124.49427979 -27.25143066 124.48855957 -28.2824707 124.48266602 C-44.35450048 124.09855136 -59.11732227 117.37200919 -70.83984375 106.3515625 C-78.00942053 98.54670676 -87 86.96153568 -87 76 C-87.88869781 76.00888245 -88.77739563 76.01776489 -89.69302368 76.0269165 C-98.07930352 76.10715517 -106.46545393 76.16801153 -114.8520298 76.20724869 C-119.16340166 76.22809934 -123.47445562 76.25637042 -127.78564453 76.30175781 C-131.9483387 76.34530627 -136.11072761 76.36915608 -140.27363205 76.37950897 C-141.8596413 76.38688426 -143.44563436 76.4012867 -145.03151321 76.42292023 C-147.25786329 76.4520753 -149.48296155 76.45595117 -151.70947266 76.45410156 C-153.60809555 76.46742523 -153.60809555 76.46742523 -155.54507446 76.48101807 C-160.77313968 75.75313152 -163.80689121 73.25590399 -167.375 69.5 C-169.77303575 64.33499991 -169.75381535 59.5997712 -169 54 C-166.69090827 49.02657165 -163.72357301 46.67389163 -159 44 C-155.54507446 43.51898193 -155.54507446 43.51898193 -151.70947266 43.54589844 C-151.00633942 43.54531433 -150.30320618 43.54473022 -149.57876587 43.54412842 C-147.27334825 43.54689723 -144.96925193 43.5779291 -142.6640625 43.609375 C-141.05838731 43.61684174 -139.45270297 43.62253263 -137.84701538 43.62652588 C-133.63493385 43.64174828 -129.42341006 43.6810001 -125.21154785 43.7253418 C-120.90803572 43.76636825 -116.60443286 43.78455258 -112.30078125 43.8046875 C-103.86693246 43.8474983 -95.43353575 43.91570765 -87 44 C-86.86207031 43.07727295 -86.72414063 42.1545459 -86.58203125 41.20385742 C-83.9592619 26.76652431 -72.71679825 14.21361406 -61.1875 6.0078125 C-43.48925166 -5.14034883 -19.53555901 -8.94566968 0 0 Z M-50 40 C-55.95684175 48.77226447 -56.80860965 56.46529681 -56 67 C-53.81622185 76.24674063 -48.84101899 82.43138233 -40.875 87.375 C-33.01458088 91.95412267 -23.95137226 92.40551976 -15.10546875 90.31640625 C-5.22194214 86.65752774 0.3956627 80.36318257 5 71 C7.77466577 62.8609804 6.86936703 52.85436893 3.25 45.17578125 C-1.085993 37.62844344 -7.55502726 32.1971498 -15.890625 29.35546875 C-29.18218706 27.1155944 -40.96260706 29.71745515 -50 40 Z " fill="#446EC5" transform="translate(217,52)"/>
</svg>
