<?xml version="1.0" encoding="UTF-8"?>
<svg version="1.1" xmlns="http://www.w3.org/2000/svg" width="512" height="512">
<path d="M0 0 C0.64227539 0.16097168 1.28455078 0.32194336 1.94628906 0.48779297 C23.89704442 6.15795087 42.73323828 17.33474233 59 33 C59.90492188 33.86496094 60.80984375 34.72992188 61.7421875 35.62109375 C67.14049217 40.89229153 72.05384185 46.35187997 76.75390625 52.25 C79.07804431 55.09555338 81.50992644 57.79890326 84 60.5 C88.09351091 64.94727112 91.92442499 69.54717463 95.71875 74.25 C98.86194258 78.03905407 102.20158595 81.63269352 105.53515625 85.25390625 C107.92707297 87.91875166 110.19254884 90.64831825 112.4375 93.4375 C115.65943101 97.43223986 119.00655495 101.24554349 122.5 105 C126.78955113 109.61004336 130.80410672 114.37782956 134.75390625 119.28515625 C137.0883059 122.10673495 139.51990598 124.80590712 142 127.5 C145.27418423 131.05670244 148.40642433 134.67161811 151.4375 138.4375 C155.09423348 142.97133357 158.94074068 147.25749382 162.91162109 151.51269531 C165.95242498 154.79263967 168.78619158 158.17671846 171.5625 161.6875 C182.26294577 174.79931383 196.79925014 184.9383355 214 187 C233.09458449 188.36666169 250.97733192 184.68630968 265.98608398 172.17089844 C278.45962027 160.97871075 285.77513972 145.47498422 286.9375 128.8125 C287.69148526 111.77529384 282.05543474 95.90112845 271.16015625 82.78515625 C260.32860303 71.24478973 244.36154752 63.47562261 228.4921875 62.6640625 C209.21345201 62.28576434 192.53083292 67.21295949 178.23974609 80.67236328 C174.26055963 84.57225676 170.74022519 88.78056669 167.296875 93.16015625 C163.88384373 97.38000954 160.18368883 101.30837358 156.48046875 105.2734375 C154.2055679 107.77403718 152.07846983 110.33529508 150 113 C146.40278644 111.5045292 144.36902779 109.47293692 141.8125 106.5625 C141.02230469 105.66402344 140.23210937 104.76554687 139.41796875 103.83984375 C137.11261459 101.13226301 134.86055432 98.39034457 132.625 95.625 C129.38045117 91.6117079 126.01229227 87.77609496 122.5 84 C108.77792264 69.21794084 108.77792264 69.21794084 106 63 C106.54527344 62.40574219 107.09054687 61.81148438 107.65234375 61.19921875 C111.60214445 56.85781388 115.43497628 52.48993848 119.0625 47.875 C140.56343212 21.46706072 168.2493534 3.82052094 202 -2 C203.010625 -2.18433594 204.02125 -2.36867187 205.0625 -2.55859375 C242.56445069 -6.76268148 277.50955617 3.15999748 306.875 26.5625 C331.54033782 47.43877558 347.87749092 76.75608969 352 109 C352.32381302 114.33581373 352.39000206 119.65684178 352.375 125 C352.37418427 126.09332642 352.37418427 126.09332642 352.37335205 127.20874023 C352.33337 138.87838267 351.45679538 149.80581052 348 161 C347.79101074 161.70930664 347.58202148 162.41861328 347.36669922 163.14941406 C341.08445536 184.07140371 329.9019301 201.15279821 315 217 C314.4740625 217.59039062 313.948125 218.18078125 313.40625 218.7890625 C292.97754413 240.78118973 260.71181381 253.18035496 231.19921875 254.3125 C216.66239031 254.65510596 203.03560657 253.85825175 189 250 C187.74058594 249.67257812 186.48117187 249.34515625 185.18359375 249.0078125 C168.61767605 244.11130608 153.04996275 235.24304483 140 224 C138.63294922 222.83984375 138.63294922 222.83984375 137.23828125 221.65625 C132.02785128 217.10783281 127.42974636 212.29797664 123 207 C121.63570664 205.40125188 120.26694529 203.80639254 118.89794922 202.21166992 C117.87266915 201.01726302 116.84827126 199.82209835 115.82470703 198.6262207 C111.52662159 193.60471483 107.19972411 188.60867544 102.86572266 183.61816406 C99.14020404 179.32506419 95.44051029 175.01070292 91.75 170.6875 C88.32559051 166.67652499 84.86273272 162.71344895 81.3125 158.8125 C78.28287132 155.47772886 75.39391908 152.06712361 72.5625 148.5625 C68.70058325 143.78715598 64.62325776 139.26332315 60.46484375 134.74609375 C58.07292703 132.08124834 55.80745116 129.35168175 53.5625 126.5625 C50.34056899 122.56776014 46.99344505 118.75445651 43.5 115 C39.21367036 110.39341882 35.20248212 105.62873004 31.25390625 100.7265625 C28.07683181 96.88323848 24.7168509 93.22288868 21.33203125 89.5625 C19.33040575 87.36305892 17.44493353 85.11275291 15.5625 82.8125 C5.75955386 71.60913298 -9.33021681 63.97394724 -24.19140625 62.83154297 C-43.20774633 61.89560696 -61.0327682 66.2064199 -75.5 79.1875 C-87.67102802 90.79821976 -94.28957266 106.54680038 -95.02758789 123.22314453 C-95.35969967 140.29661442 -88.95305255 156.78110352 -77.25 169.25 C-63.13909077 182.51968195 -45.7899669 187.72076553 -26.859375 187.30859375 C-8.95338997 186.46111881 5.97126731 177.82279484 18 165 C20.30948861 162.33168176 22.52211224 159.61386911 24.703125 156.83984375 C28.11615627 152.61999046 31.81631117 148.69162642 35.51953125 144.7265625 C37.7944321 142.22596282 39.92153017 139.66470492 42 137 C45.59721356 138.4954708 47.63097221 140.52706308 50.1875 143.4375 C50.97769531 144.33597656 51.76789063 145.23445312 52.58203125 146.16015625 C54.88738541 148.86773699 57.13944568 151.60965543 59.375 154.375 C62.61954883 158.3882921 65.98770773 162.22390504 69.5 166 C83.22207736 180.78205916 83.22207736 180.78205916 86 187 C85.45472656 187.59425781 84.90945312 188.18851563 84.34765625 188.80078125 C80.39785555 193.14218612 76.56502372 197.51006152 72.9375 202.125 C51.08168887 228.96880983 20.69308453 249.09284198 -14.41845703 252.80517578 C-30.3443551 254.00707352 -46.46829922 253.95497948 -62 250 C-62.64227539 249.83902832 -63.28455078 249.67805664 -63.94628906 249.51220703 C-85.93977689 243.8310108 -104.66246318 232.63309908 -121 217 C-121.80824219 216.26652344 -122.61648437 215.53304687 -123.44921875 214.77734375 C-146.37824842 193.21613689 -158.56603328 161.00953025 -160 130 C-160.04125 129.23171875 -160.0825 128.4634375 -160.125 127.671875 C-161.05160122 93.61928 -147.88230695 61.26846347 -124.8125 36.5625 C-104.96789704 15.76339642 -80.30074421 3.08314338 -52 -2 C-50.48019531 -2.2784375 -50.48019531 -2.2784375 -48.9296875 -2.5625 C-32.78281796 -4.36016341 -15.77922488 -4.01800881 0 0 Z " fill="#C54444" transform="translate(160,131)"/>
</svg>
