<?xml version="1.0" encoding="UTF-8"?>
<svg version="1.1" xmlns="http://www.w3.org/2000/svg" width="936" height="270">
<path d="M0 0 C6.51530894 4.72406304 11.09134711 9.46394478 14 17 C14 17.66 14 18.32 14 19 C14.66 19 15.32 19 16 19 C16.0825 18.46375 16.165 17.9275 16.25 17.375 C18.77498056 9.37922822 25.82554595 3.46757891 33.0625 -0.3125 C43.84375074 -5.52619018 58.87839436 -6.2081255 70.25 -2.375 C80.33294673 2.12208892 87.70514552 9.32133937 92.140625 19.3984375 C94.49388091 26.52238493 95.28986525 33.26500246 95.22705078 40.74243164 C95.22734283 41.67033508 95.22763489 42.59823853 95.22793579 43.55426025 C95.22655399 46.58965752 95.21104738 49.62480242 95.1953125 52.66015625 C95.19157828 54.77721523 95.18873324 56.89427595 95.18673706 59.01133728 C95.17913284 64.55973149 95.15951212 70.10801955 95.1373291 75.65637207 C95.11680127 81.32754073 95.10772055 86.9987267 95.09765625 92.66992188 C95.07626302 103.78000185 95.04110725 114.88997545 95 126 C83.12 126 71.24 126 59 126 C58.96261719 120.19664062 58.92523437 114.39328125 58.88671875 108.4140625 C58.85641854 104.72262738 58.82525727 101.03123928 58.79101562 97.33984375 C58.73682826 91.48944558 58.68571312 85.63914042 58.65356445 79.78857422 C58.6274253 75.0681115 58.5869488 70.34796368 58.53681374 65.62769699 C58.52021648 63.83296013 58.50865797 62.03816889 58.50238609 60.24336624 C58.85447378 44.72993185 58.85447378 44.72993185 52.625 31 C46.77369947 26.54186626 41.12658474 26.35492121 34 27 C28.41568313 28.23980169 25.16075666 31.30401868 22 36 C20.1508338 41.26086394 19.69696621 45.91645289 19.68115234 51.41381836 C19.67110672 52.2243869 19.6610611 53.03495544 19.65071106 53.87008667 C19.62002962 56.52666571 19.60288609 59.18314467 19.5859375 61.83984375 C19.56721373 63.69072827 19.54763942 65.54160437 19.5272522 67.39247131 C19.47605271 72.24702981 19.43636195 77.10161595 19.39910889 81.95629883 C19.35899266 86.91689828 19.30793515 91.87738397 19.2578125 96.83789062 C19.16119747 106.55852155 19.07775881 116.27919993 19 126 C7.45 126 -4.1 126 -16 126 C-16.01458252 123.53281494 -16.02916504 121.06562988 -16.04418945 118.52368164 C-16.09464811 110.34924365 -16.16126291 102.1749939 -16.23571491 94.000741 C-16.28033961 89.04730435 -16.31961302 84.09394844 -16.34643555 79.14038086 C-16.37254749 74.3550858 -16.41300533 69.5701028 -16.46318626 64.78500175 C-16.47980175 62.96431819 -16.49134901 61.14358071 -16.49761391 59.32283211 C-16.5073132 56.76184921 -16.53544061 54.20165518 -16.56762695 51.64086914 C-16.56619186 50.89711533 -16.56475677 50.15336151 -16.5632782 49.3870697 C-16.6828375 42.60964206 -18.06170534 36.39736445 -22.375 31.0625 C-28.16461897 26.51351366 -33.87756945 26.33915593 -41 27 C-46.01192744 28.67064248 -49.1921271 31.57114883 -52 36 C-54.66236093 41.45729087 -55.44407186 46.41940029 -55.43237305 52.43554688 C-55.4425647 53.23650787 -55.45275635 54.03746887 -55.46325684 54.86270142 C-55.49318843 57.48145726 -55.50262208 60.09984616 -55.51171875 62.71875 C-55.52858019 64.54578854 -55.54673239 66.37281558 -55.56611633 68.1998291 C-55.61346341 72.98698331 -55.64337147 77.77409087 -55.66955566 82.56140137 C-55.70470113 88.31689056 -55.76167013 94.07220076 -55.81494904 99.82754517 C-55.89328352 108.55167355 -55.94402468 117.27557051 -56 126 C-67.88 126 -79.76 126 -92 126 C-92 83.43 -92 40.86 -92 -3 C-80.45 -3 -68.9 -3 -57 -3 C-56.505 6.405 -56.505 6.405 -56 16 C-54.906875 14.329375 -53.81375 12.65875 -52.6875 10.9375 C-41.45452718 -4.51779594 -16.84756759 -10.10312333 0 0 Z " fill="#446FFF" transform="translate(675,94)"/>
<path d="M0 0 C1.68848236 1.73769822 3.22733219 3.51783831 4.734375 5.4140625 C6.05589609 7.13884245 6.05589609 7.13884245 8.0625 9 C18.66609017 19.94564146 21.8361261 34.14923056 22.25 49 C21.71842308 67.04408314 15.87538206 82.23796594 3 95 C1.47427059 96.53482224 -0.05069395 98.07040515 -1.57495117 99.60668945 C-5.88525995 103.94883135 -10.19984153 108.28668101 -14.51769543 112.62131977 C-17.1227585 115.23687892 -19.72589136 117.85430438 -22.32495117 120.47583008 C-24.84859519 123.02113678 -27.37703448 125.56158624 -29.90892982 128.09868431 C-30.87197421 129.06542899 -31.83325421 130.03393457 -32.79274559 131.0042057 C-34.12827357 132.35416542 -35.47058648 133.69740268 -36.81323242 135.0402832 C-37.57536545 135.80685745 -38.33749847 136.5734317 -39.12272644 137.36323547 C-41 139 -41 139 -43 139 C-43 139.66 -43 140.32 -43 141 C-43.66 141 -44.32 141 -45 141 C-45 141.66 -45 142.32 -45 143 C-46.0725 143.515625 -47.145 144.03125 -48.25 144.5625 C-52.46996205 146.93355373 -53.93145982 149.69743642 -56 154 C-56.66 154 -57.32 154 -58 154 C-58 154.66 -58 155.32 -58 156 C-58.66 156 -59.32 156 -60 156 C-60.24462982 156.5692923 -60.48925964 157.13858459 -60.74130249 157.72512817 C-62.22523428 160.4070709 -63.9734195 162.22763259 -66.13916016 164.39794922 C-66.99410065 165.25919403 -67.84904114 166.12043884 -68.72988892 167.00778198 C-70.12042984 168.39225021 -70.12042984 168.39225021 -71.5390625 169.8046875 C-72.50382209 170.77079592 -73.46828476 171.73720093 -74.4324646 172.70388794 C-76.45515728 174.72952728 -78.48141642 176.75151185 -80.51025391 178.77099609 C-83.09236636 181.34177551 -85.66547656 183.9213474 -88.23591042 186.50379753 C-90.2278807 188.50305123 -92.22466016 190.4974474 -94.2228508 192.49048233 C-95.63006838 193.89574071 -97.0333015 195.30498554 -98.43643188 196.71432495 C-113.70252547 211.87028296 -129.50210468 220.26067274 -151.36938477 220.2487793 C-162.21981422 220.0863792 -171.61839173 217.43145742 -181 212 C-181.79019531 211.55011719 -182.58039063 211.10023438 -183.39453125 210.63671875 C-187.47437036 208.21453756 -187.47437036 208.21453756 -189 207 C-189 206.34 -189 205.68 -189 205 C-189.86625 204.62875 -189.86625 204.62875 -190.75 204.25 C-193.32939979 202.81700012 -195.06121592 201.21575324 -197 199 C-197 198.34 -197 197.68 -197 197 C-197.66 197 -198.32 197 -199 197 C-202 192.61538462 -202 192.61538462 -202 190 C-202.66 190 -203.32 190 -204 190 C-204.96875787 187.8583749 -205.92489389 185.71239126 -206.875 183.5625 C-207.40867188 182.36753906 -207.94234375 181.17257813 -208.4921875 179.94140625 C-214.65090503 164.77453018 -213.63676719 146.5456824 -207.62890625 131.5859375 C-199.90433354 114.58076305 -184.30241013 102.11465962 -171.27368164 89.08837891 C-168.68546963 86.50026951 -166.10427095 83.9052809 -163.52466869 81.30859375 C-161.51628739 79.28907032 -159.50335353 77.27413207 -157.48913002 75.26043701 C-156.07588772 73.84545939 -154.66718249 72.42595487 -153.2585907 71.00634766 C-142.21295487 60 -142.21295487 60 -138 60 C-137.7215625 59.01 -137.7215625 59.01 -137.4375 58 C-135.34598705 53.63510341 -132.30083238 50.50603511 -129 47 C-128.56381348 46.52594727 -128.12762695 46.05189453 -127.67822266 45.56347656 C-126.25878978 44.02743863 -124.81996799 42.51201139 -123.375 41 C-122.47523437 40.05125 -121.57546875 39.1025 -120.6484375 38.125 C-118 36 -118 36 -115.28125 35.58203125 C-113 36 -113 36 -111.125 37.6875 C-109.72138511 40.57270838 -110.07945658 41.98731243 -111 45 C-111.66 45 -112.32 45 -113 45 C-113.33 45.99 -113.66 46.98 -114 48 C-114.66 48 -115.32 48 -116 48 C-116 48.66 -116 49.32 -116 50 C-116.66 50 -117.32 50 -118 50 C-118.495 51.485 -118.495 51.485 -119 53 C-119.66 53 -120.32 53 -121 53 C-121 53.66 -121 54.32 -121 55 C-121.66 55 -122.32 55 -123 55 C-123.25910156 55.56074219 -123.51820312 56.12148437 -123.78515625 56.69921875 C-125.1359287 59.2574341 -126.72869143 61.47896571 -128.4375 63.8125 C-136.78005122 75.70323171 -138.45498235 89.38761347 -136.25 103.5625 C-134.54349244 112.03536968 -130.6619469 121.48132807 -124.34765625 127.6015625 C-123 129 -123 129 -123 131 C-122.4225 131.0825 -121.845 131.165 -121.25 131.25 C-119 132 -119 132 -117.29296875 133.8125 C-114.51218427 136.46537786 -111.47628616 138.07368351 -108.0625 139.75 C-107.45470703 140.06582031 -106.84691406 140.38164062 -106.22070312 140.70703125 C-102.71209381 142.45565855 -99.91004495 143.79108704 -96 143 C-93.48355754 141.12575466 -93.48355754 141.12575466 -91.25 138.625 C-90.47140625 137.81289062 -89.6928125 137.00078125 -88.890625 136.1640625 C-86.96899127 134.14771537 -86.96899127 134.14771537 -86 132 C-87.59328125 131.65388672 -87.59328125 131.65388672 -89.21875 131.30078125 C-96.93909523 129.54764993 -103.66806377 128.01278285 -110 123 C-110 122.34 -110 121.68 -110 121 C-110.58523437 120.77699219 -111.17046875 120.55398437 -111.7734375 120.32421875 C-114.67104274 118.60090616 -115.84131532 116.66089515 -117.625 113.8125 C-118.51058594 112.42998047 -118.51058594 112.42998047 -119.4140625 111.01953125 C-124.07261588 102.14992099 -124.48326787 91.40710553 -122.2421875 81.7265625 C-120.49430517 76.70312114 -118.35664197 72.13985843 -115 68 C-114.34 68 -113.68 68 -113 68 C-112.75354736 67.42888489 -112.50709473 66.85776978 -112.25317383 66.26934814 C-110.79174149 63.62286871 -109.08499981 61.83083036 -106.94921875 59.69042969 C-106.11495361 58.84986023 -105.28068848 58.00929077 -104.42114258 57.14324951 C-103.0679895 55.79616913 -103.0679895 55.79616913 -101.6875 54.421875 C-100.76283936 53.4953009 -99.83817871 52.56872681 -98.88549805 51.61407471 C-96.93178301 49.6574163 -94.97450889 47.70440857 -93.01464844 45.75390625 C-90.49915795 43.24984146 -87.99279451 40.73686276 -85.48899841 38.2211113 C-83.1016736 35.82484056 -80.70677812 33.4361985 -78.3125 31.046875 C-76.95934692 29.68764923 -76.95934692 29.68764923 -75.57885742 28.30096436 C-74.32745972 27.05902313 -74.32745972 27.05902313 -73.05078125 25.79199219 C-72.31512939 25.05793152 -71.57947754 24.32387085 -70.8215332 23.56756592 C-69 22 -69 22 -67 22 C-67 21.34 -67 20.68 -67 20 C-66.34 20 -65.68 20 -65 20 C-65 19.34 -65 18.68 -65 18 C-54.49271095 11.35045959 -43.42325666 9.32250772 -31.1875 11.875 C-28.00449235 12.66510828 -24.99582663 13.64704604 -22 15 C-22 15.66 -22 16.32 -22 17 C-21.195625 17.0928125 -21.195625 17.0928125 -20.375 17.1875 C-13.26307645 19.62052648 -9.96451132 25.60289355 -6.48046875 31.87109375 C-1.83928627 41.68003087 -1.90751392 52.71828082 -5 63 C-7.48482828 68.63167285 -10.76917604 73.54048285 -15 78 C-15.66 78 -16.32 78 -17 78 C-17.33 78.99 -17.66 79.98 -18 81 C-18.66 81 -19.32 81 -20 81 C-20 81.66 -20 82.32 -20 83 C-20.66 83 -21.32 83 -22 83 C-22.33 83.99 -22.66 84.98 -23 86 C-23.66 86 -24.32 86 -25 86 C-25 86.66 -25 87.32 -25 88 C-25.66 88 -26.32 88 -27 88 C-27.33 88.99 -27.66 89.98 -28 91 C-28.66 91 -29.32 91 -30 91 C-30 91.66 -30 92.32 -30 93 C-30.66 93 -31.32 93 -32 93 C-32.33 93.99 -32.66 94.98 -33 96 C-33.66 96 -34.32 96 -35 96 C-35 96.66 -35 97.32 -35 98 C-35.66 98 -36.32 98 -37 98 C-37.33 98.99 -37.66 99.98 -38 101 C-38.66 101 -39.32 101 -40 101 C-40 101.66 -40 102.32 -40 103 C-40.99 103.495 -40.99 103.495 -42 104 C-42 110.6 -42 117.2 -42 124 C-36.42174203 118.49632278 -30.85373602 112.98254222 -25.29467773 107.45947266 C-23.40596061 105.58406488 -21.51301119 103.71323902 -19.61791992 101.84423828 C-16.88254683 99.14556711 -14.15725137 96.43705119 -11.43359375 93.7265625 C-10.59477158 92.90322418 -9.7559494 92.07988586 -8.89170837 91.2315979 C3.2962489 79.04709146 10.71755382 66.17227482 11.0703125 48.7265625 C10.97892308 43.88292303 10.4064935 39.62682561 9 35 C8.63068359 33.68128906 8.63068359 33.68128906 8.25390625 32.3359375 C4.22095291 19.60972917 -4.16590837 10.1076164 -15.6484375 3.46875 C-30.50495305 -4.20488566 -45.28795912 -4.72906977 -61.11230469 0.29785156 C-67.29219313 2.59652709 -72.49228508 6.59730896 -77.375 10.9375 C-80 13 -80 13 -82.75 13.4375 C-85 13 -85 13 -87 11 C-87.4375 8.1875 -87.4375 8.1875 -87 5 C-84.625 2.125 -84.625 2.125 -82 0 C-81.34 0 -80.68 0 -80 0 C-80 -0.66 -80 -1.32 -80 -2 C-76.35584781 -4.04344983 -72.68858665 -6.0378835 -69 -8 C-68.24847656 -8.4021875 -67.49695313 -8.804375 -66.72265625 -9.21875 C-45.72778515 -19.54025088 -17.68776007 -14.42948848 0 0 Z M-66 34 C-66.75716309 34.75023437 -67.51432617 35.50046875 -68.29443359 36.2734375 C-73.89062842 41.82161921 -79.45559095 47.40009563 -85 53 C-82.44245115 55.55754885 -79.78912594 56.5502171 -76.5 58.0625 C-60.89325195 65.5871821 -53.15733758 77.92300485 -46 93 C-40.21423397 88.17203912 -34.7964111 83.04576604 -29.4375 77.75 C-28.61314453 76.95464844 -27.78878906 76.15929687 -26.93945312 75.33984375 C-19.21877547 67.69939696 -13.09195523 60.07202366 -12.6875 48.875 C-12.71643154 43.15619957 -14.81761895 38.21238332 -17 33 C-17.66 33 -18.32 33 -19 33 C-19.309375 32.1646875 -19.309375 32.1646875 -19.625 31.3125 C-22.6139761 26.28558566 -27.28623757 23.31477555 -32.73828125 21.5078125 C-46.85357399 18.33857579 -56.35975019 24.36795932 -66 34 Z M-96.8203125 64.625 C-97.92696886 65.74498957 -99.0283192 66.87024066 -100.125 68 C-100.68832031 68.57234375 -101.25164062 69.1446875 -101.83203125 69.734375 C-103.22586268 71.15183069 -104.61351636 72.57535626 -106 74 C-103.04523791 75.96984139 -101.75691856 76.34892378 -98.375 76.875 C-91.13988159 78.22894029 -84.98833645 80.41306318 -80 86 C-79.34 86 -78.68 86 -78 86 C-78 86.66 -78 87.32 -78 88 C-77.4225 88.515625 -76.845 89.03125 -76.25 89.5625 C-73.12401369 92.94898517 -71.73583097 96.77858947 -70 101 C-69.67 101.66 -69.34 102.32 -69 103 C-67.96774623 114.10562681 -67.55267545 125.92757863 -74.63671875 135.125 C-76.19602383 136.88323238 -76.19602383 136.88323238 -76 139 C-76.66 139 -77.32 139 -78 139 C-78 139.66 -78 140.32 -78 141 C-78.66 141 -79.32 141 -80 141 C-81.66666667 142.33333333 -81.66666667 142.33333333 -83 144 C-83 144.66 -83 145.32 -83 146 C-84.485 146.495 -84.485 146.495 -86 147 C-86 147.66 -86 148.32 -86 149 C-86.66 149 -87.32 149 -88 149 C-88 149.66 -88 150.32 -88 151 C-89.485 151.495 -89.485 151.495 -91 152 C-91 152.66 -91 153.32 -91 154 C-91.66 154 -92.32 154 -93 154 C-93 154.66 -93 155.32 -93 156 C-94.485 156.495 -94.485 156.495 -96 157 C-96 157.66 -96 158.32 -96 159 C-96.66 159 -97.32 159 -98 159 C-99.66666667 160.33333333 -99.66666667 160.33333333 -101 162 C-101 162.66 -101 163.32 -101 164 C-101.66 164 -102.32 164 -103 164 C-104.66666667 165.33333333 -104.66666667 165.33333333 -106 167 C-106 167.66 -106 168.32 -106 169 C-106.66 169 -107.32 169 -108 169 C-109.66666667 170.33333333 -109.66666667 170.33333333 -111 172 C-111 172.66 -111 173.32 -111 174 C-111.66 174 -112.32 174 -113 174 C-114.66666667 175.33333333 -114.66666667 175.33333333 -116 177 C-116 177.66 -116 178.32 -116 179 C-116.66 179 -117.32 179 -118 179 C-119.66666667 180.33333333 -119.66666667 180.33333333 -121 182 C-121 182.66 -121 183.32 -121 184 C-122.485 184.495 -122.485 184.495 -124 185 C-124 185.66 -124 186.32 -124 187 C-124.66 187.2475 -125.32 187.495 -126 187.75 C-129.10853573 189.04522322 -132.05520534 190.53391964 -135.03515625 192.09765625 C-142.50540849 195.52832875 -153.2183162 195.15214104 -161.12890625 193.24609375 C-163.53806701 192.3081762 -165.74835683 191.26654928 -168 190 C-169.051875 189.4225 -170.10375 188.845 -171.1875 188.25 C-178.24499407 182.60400474 -184.66450488 175.17207971 -186 166 C-186.18684723 163.06136941 -186.23055166 160.13149321 -186.25 157.1875 C-186.270625 156.41857422 -186.29125 155.64964844 -186.3125 154.85742188 C-186.350547 149.22171065 -185.21547876 145.1805556 -183 140 C-182.32264783 138.00359361 -181.65161065 136.00495586 -181 134 C-180.34 134 -179.68 134 -179 134 C-177.61743982 132.58589435 -177.61743982 132.58589435 -176.1484375 130.69921875 C-173.05490214 127.04519059 -169.69278824 123.85878107 -166.1015625 120.70703125 C-152.16117914 109.08855764 -152.16117914 109.08855764 -145.97021484 92.8190918 C-146.01284924 88.78385092 -146.3360701 84.98357938 -147 81 C-147.66 81 -148.32 81 -149 81 C-149 81.66 -149 82.32 -149 83 C-149.66 83 -150.32 83 -151 83 C-152.66666667 84.33333333 -152.66666667 84.33333333 -154 86 C-154 86.66 -154 87.32 -154 88 C-154.66 88 -155.32 88 -156 88 C-157.66666667 89.33333333 -157.66666667 89.33333333 -159 91 C-159 91.66 -159 92.32 -159 93 C-159.66 93 -160.32 93 -161 93 C-162.66666667 94.33333333 -162.66666667 94.33333333 -164 96 C-164 96.66 -164 97.32 -164 98 C-164.66 98 -165.32 98 -166 98 C-167.66666667 99.33333333 -167.66666667 99.33333333 -169 101 C-169 101.66 -169 102.32 -169 103 C-170.485 103.495 -170.485 103.495 -172 104 C-172 104.66 -172 105.32 -172 106 C-172.66 106 -173.32 106 -174 106 C-175.66666667 107.33333333 -175.66666667 107.33333333 -177 109 C-177 109.66 -177 110.32 -177 111 C-177.66 111 -178.32 111 -179 111 C-180.66666667 112.33333333 -180.66666667 112.33333333 -182 114 C-182 114.66 -182 115.32 -182 116 C-182.66 116 -183.32 116 -184 116 C-195.53430716 128.12348592 -202.68583286 142.05832364 -202.47460938 159.04150391 C-201.77759629 175.09991099 -194.0910214 186.9956272 -183 198 C-172.29065532 207.16997983 -159.3903373 210.67154091 -145.44140625 210.2734375 C-124.56084774 208.61436929 -111.23927621 194.35366171 -97.1171875 180.35546875 C-96.21807648 179.46442947 -95.31896545 178.5733902 -94.39260864 177.65534973 C-92.5071747 175.78364244 -90.62312103 173.9106391 -88.74072266 172.03588867 C-86.35812871 169.66437419 -83.96406205 167.30479824 -81.56728935 164.94762707 C-79.24179858 162.65491267 -76.93057848 160.34788144 -74.6171875 158.04296875 C-73.7711496 157.21443893 -72.92511169 156.38590912 -72.05343628 155.53227234 C-59.94665169 143.38165156 -52.97007394 131.15080409 -52.75 113.875 C-52.86503571 99.22232684 -57.72263108 87.2424328 -67 76 C-69.50115026 73.69934275 -72.14478326 71.83392768 -75 70 C-75.97453125 69.32324219 -75.97453125 69.32324219 -76.96875 68.6328125 C-82.69148345 64.79494761 -91.07332548 59.27600377 -96.8203125 64.625 Z M-113 86 C-113.83560266 95.59395646 -112.66637612 103.00365414 -107 111 C-106.01 111.33 -105.02 111.66 -104 112 C-103.67 112.99 -103.34 113.98 -103 115 C-95.7617442 119.97478785 -88.73722274 122.23699032 -80 121 C-79.34 120.67 -78.68 120.34 -78 120 C-77.40850082 110.87776813 -77.45516642 103.57002469 -83 96 C-85.14060617 93.65092624 -87.38913993 91.80273671 -90 90 C-91.0725 89.236875 -92.145 88.47375 -93.25 87.6875 C-99.23582103 84.43728044 -106.51632202 84.46685593 -113 86 Z M-145 113 C-148.77019977 116.64551116 -152.52282367 120.30797224 -156.26098633 123.98632812 C-157.53182254 125.23220177 -158.80713305 126.47353001 -160.0871582 127.70996094 C-171.91581835 138.86967447 -171.91581835 138.86967447 -177.59375 153.7578125 C-177.40616401 160.495276 -176.93316347 165.88924278 -174 172 C-173.34 172 -172.68 172 -172 172 C-171.75894531 172.75925781 -171.51789063 173.51851562 -171.26953125 174.30078125 C-169.80510203 177.41438308 -168.57122975 178.37971647 -165.6875 180.1875 C-164.92824219 180.67605469 -164.16898438 181.16460937 -163.38671875 181.66796875 C-156.66687602 185.41832288 -150.61715481 185.99354193 -143 185 C-137.55815067 183.02397911 -131.74777718 180.59039823 -128 176 C-128 175.34 -128 174.68 -128 174 C-127.34 174 -126.68 174 -126 174 C-123.33333333 171.66666667 -123.33333333 171.66666667 -121 169 C-121 168.34 -121 167.68 -121 167 C-120.34 167 -119.68 167 -119 167 C-117.33333333 165.66666667 -117.33333333 165.66666667 -116 164 C-116 163.34 -116 162.68 -116 162 C-115.01 161.67 -114.02 161.34 -113 161 C-113 160.34 -113 159.68 -113 159 C-112.4225 158.773125 -111.845 158.54625 -111.25 158.3125 C-108.4336339 156.66961977 -106.91922886 154.60466773 -105 152 C-105.59425781 151.79246094 -106.18851562 151.58492187 -106.80078125 151.37109375 C-117.42734579 147.42125094 -129.58727018 141.1302064 -135.21484375 130.76171875 C-135.47394531 130.18035156 -135.73304688 129.59898437 -136 129 C-136.66 129 -137.32 129 -138 129 C-138.268125 128.13375 -138.53625 127.2675 -138.8125 126.375 C-139.97433204 123.07295105 -141.38256562 120.10008256 -143 117 C-143.6685762 115.66762314 -144.33562526 114.33447684 -145 113 Z " fill="#487FFF" transform="translate(223,32)"/>
<path d="M0 0 C1.51815699 0.00015911 3.0363194 0.00585313 4.55444336 0.01586914 C5.35208603 0.01728409 6.1497287 0.01869904 6.97154236 0.02015686 C9.52916146 0.02577223 12.08669429 0.03832727 14.64428711 0.05102539 C16.37410356 0.05603841 18.10392137 0.06060166 19.83374023 0.06469727 C24.08312264 0.07574664 28.33244023 0.09302153 32.58178711 0.11352539 C32.58725555 1.62116959 32.58725555 1.62116959 32.59283447 3.15927124 C32.62988526 12.66297634 32.68776755 22.16636043 32.76568985 31.66982079 C32.80508431 36.55487728 32.83731205 41.43975568 32.8527832 46.32495117 C32.86800285 51.04547985 32.90254196 55.76551865 32.95009613 60.4858284 C32.96485539 62.28056183 32.97282497 64.07536523 32.97367096 65.87015915 C32.62406523 80.74053537 32.62406523 80.74053537 38.9932251 93.73886108 C44.17693543 98.40830539 49.10268392 99.59408762 55.89038086 99.42211914 C62.11542011 98.70836283 67.64242693 96.55991269 72.01928711 91.98852539 C78.79428597 82.53592251 78.05261458 71.18811565 78.09350586 60.07446289 C78.1103775 58.33996327 78.12853103 56.60547569 78.14790344 54.8710022 C78.19514008 50.33705408 78.22511899 45.80315481 78.25134277 41.26904297 C78.2865591 35.81218855 78.34349597 30.35552158 78.39673615 24.89881897 C78.4749408 16.63707921 78.52577973 8.3755796 78.58178711 0.11352539 C90.46178711 0.11352539 102.34178711 0.11352539 114.58178711 0.11352539 C114.58178711 42.68352539 114.58178711 85.25352539 114.58178711 129.11352539 C103.03178711 129.11352539 91.48178711 129.11352539 79.58178711 129.11352539 C79.25178711 122.51352539 78.92178711 115.91352539 78.58178711 109.11352539 C77.34428711 111.12446289 77.34428711 111.12446289 76.08178711 113.17602539 C69.96845437 122.25339824 61.91801404 127.88769609 51.28491211 130.72680664 C38.44565445 132.56363686 25.19267064 131.97868419 14.26928711 124.36352539 C2.73467462 114.79123287 -2.80470396 103.11554344 -4.21307373 88.39138794 C-4.68365744 80.87205955 -4.56062187 73.32815578 -4.55102539 65.79711914 C-4.55169982 63.93050626 -4.55267101 62.06389347 -4.55392456 60.19728088 C-4.55539168 56.3066422 -4.55327661 52.41602661 -4.54858398 48.52539062 C-4.54285141 43.52832703 -4.54619405 38.53131673 -4.55215645 33.53425503 C-4.55575831 29.69026787 -4.55462583 25.84629351 -4.55202866 22.00230598 C-4.55136019 20.15822404 -4.55218502 18.31414095 -4.55450821 16.47006035 C-4.55703242 13.90644077 -4.55319911 11.3429098 -4.54760742 8.77929688 C-4.54963165 8.01314056 -4.55165588 7.24698425 -4.55374146 6.45761108 C-4.52810364 0.15038699 -4.52810364 0.15038699 0 0 Z " fill="#4C94FF" transform="translate(440.418212890625,90.886474609375)"/>
<path d="M0 0 C5.74727273 -0.19803736 11.49255423 -0.34305146 17.24243164 -0.43945312 C19.19721063 -0.4796409 21.15174977 -0.53420412 23.10571289 -0.60351562 C25.91873249 -0.7007876 28.72857226 -0.74596862 31.54296875 -0.78125 C32.84949654 -0.84318542 32.84949654 -0.84318542 34.18241882 -0.90637207 C36.68876285 -0.9082179 38.62647407 -0.81223973 41 0 C43.31177927 2.38002327 44.6238296 5.00447295 46 8 C46.51828369 8.94182129 47.03656738 9.88364258 47.57055664 10.85400391 C48.01262451 11.71944824 48.45469238 12.58489258 48.91015625 13.4765625 C49.67344238 14.9605957 49.67344238 14.9605957 50.45214844 16.47460938 C50.98356445 17.51423828 51.51498047 18.55386719 52.0625 19.625 C56.83451313 28.88527019 61.71994783 38.07073927 66.73364258 47.20214844 C71.24422237 55.42193213 75.64047959 63.69929699 80 72 C82.28509732 69.11060368 84.04094021 66.19273203 85.71484375 62.9140625 C86.22998535 61.91213867 86.74512695 60.91021484 87.27587891 59.87792969 C87.82421387 58.80446289 88.37254883 57.73099609 88.9375 56.625 C93.23653916 48.27789001 97.6005061 39.9771661 102.125 31.75 C107.90033195 21.24275824 113.46379768 10.63533604 119 0 C132.86 0 146.72 0 161 0 C159.48664505 3.78338738 157.950629 7.05726572 155.98046875 10.5859375 C155.37702637 11.6697168 154.77358398 12.75349609 154.15185547 13.87011719 C153.49718415 15.03847525 152.84239608 16.20676791 152.1875 17.375 C151.50909071 18.59006509 150.83087056 19.80523579 150.15283203 21.02050781 C144.33855387 31.43217015 138.47455401 41.81580197 132.59277344 52.18945312 C129.8908402 56.95718081 127.19578414 61.72879369 124.5 66.5 C121.15742319 72.41472671 117.81409009 78.32902318 114.46875 84.2421875 C113.59766602 85.78229492 113.59766602 85.78229492 112.70898438 87.35351562 C111.60639653 89.30289093 110.503551 91.25212051 109.40039062 93.20117188 C108.89701172 94.09126953 108.39363281 94.98136719 107.875 95.8984375 C107.22144531 97.05351807 107.22144531 97.05351807 106.5546875 98.23193359 C106.04164063 99.14539551 105.52859375 100.05885742 105 101 C104.58184525 101.60095993 104.16369049 102.20191986 103.73286438 102.8210907 C99.24367438 109.7395704 99.26829722 116.14331481 99.29296875 124.22265625 C99.27982868 125.57745056 99.26451743 126.93222538 99.24714661 128.28697205 C99.20755184 131.8231759 99.19712294 135.35886436 99.19311523 138.89526367 C99.18373503 142.51561628 99.14655889 146.13568126 99.11132812 149.75585938 C99.0444234 156.83762362 99.02336082 163.91742451 99 171 C86.79 171 74.58 171 62 171 C62.09023438 166.88660156 62.18046875 162.77320313 62.2734375 158.53515625 C62.30626299 155.17508092 62.32469518 151.81558302 62.33370972 148.45539093 C62.34692746 144.95103178 62.38317715 141.45104024 62.48339844 137.94799805 C63.0188507 118.4005268 60.05380777 104.36525239 48.81929016 87.76416016 C45.7615427 83.11833517 43.1235525 78.24160656 40.4375 73.375 C39.36535086 71.47539291 38.29138113 69.57681115 37.21484375 67.6796875 C33.97392142 61.95461644 30.73672361 56.2274456 27.5 50.5 C26.4231824 48.59504908 25.34635948 46.69010117 24.26953125 44.78515625 C22.03685763 40.83514474 19.80522027 36.8845499 17.57421875 32.93359375 C16.72960083 31.43832153 16.72960083 31.43832153 15.86791992 29.9128418 C14.76213339 27.95494255 13.65681456 25.99677906 12.55200195 24.03833008 C10.18877658 19.85303426 7.81845901 15.67291647 5.40625 11.515625 C5.02573486 10.85828369 4.64521973 10.20094238 4.25317383 9.52368164 C3.27020495 7.83000263 2.28183278 6.13946262 1.29296875 4.44921875 C0 2 0 2 0 0 Z " fill="#415DFF" transform="translate(765,49)"/>
<path d="M0 0 C12.21 0 24.42 0 37 0 C37 46.53 37 93.06 37 141 C61.09 141 85.18 141 110 141 C110 150.9 110 160.8 110 171 C73.7 171 37.4 171 0 171 C0 114.57 0 58.14 0 0 Z " fill="#50A9FF" transform="translate(304,49)"/>
<path d="M0 0 C2 3 2 3 1.875 6 C1 9 1 9 -0.8125 10.9375 C-3 12 -3 12 -5.125 11.75 C-7 11 -7 11 -9 10 C-9.36103152 3.6217765 -9.36103152 3.6217765 -7.875 1.0625 C-5.12198451 -0.49754211 -3.0996593 -0.39570119 0 0 Z " fill="#51ADFF" transform="translate(129,50)"/>
</svg>
