<?xml version="1.0" encoding="UTF-8"?>
<svg version="1.1" xmlns="http://www.w3.org/2000/svg" width="512" height="512">
<path d="M0 0 C0.721875 0.63035156 1.44375 1.26070312 2.1875 1.91015625 C2.8475 2.42707031 3.5075 2.94398437 4.1875 3.4765625 C22.87272876 18.50762354 33.61698815 42.71655627 36.8125 66.03515625 C39.484513 93.96983767 31.94947402 121.12544048 14.1875 142.91015625 C5.72579688 152.55369203 -3.3447848 161.60573063 -12.41015625 170.67578125 C-13.89512479 172.16397266 -15.38002229 173.65223495 -16.86485291 175.14056396 C-19.95672424 178.23837837 -23.05060939 181.3341651 -26.14575195 184.42871094 C-30.08997371 188.37283074 -34.027246 192.32381067 -37.96282291 196.27655411 C-41.01962803 199.34452705 -44.08101748 202.40789428 -47.14367485 205.47002411 C-48.59678634 206.92430637 -50.04829844 208.38018875 -51.49809456 209.83777618 C-68.76630151 227.19016632 -68.76630151 227.19016632 -78.4375 233.22265625 C-82.41131938 235.99508838 -84.77338656 239.83565575 -87.50642395 243.77357483 C-95.65195851 254.85262505 -106.14344449 264.41744076 -115.83203125 274.1328125 C-116.53261847 274.83622709 -117.23320568 275.53964169 -117.95502281 276.26437187 C-121.65785165 279.98206563 -125.36344792 283.69697313 -129.0715332 287.40942383 C-132.86017943 291.20355805 -136.63944387 295.00689487 -140.41660023 298.81246281 C-143.36208223 301.7767268 -146.31440518 304.7341078 -149.26852989 307.68975639 C-150.663417 309.08763191 -152.05585038 310.48796111 -153.44556618 311.89097786 C-175.76751646 334.41139751 -200.33625028 351.94473752 -233.26220703 352.23974609 C-234.89585205 352.23128662 -234.89585205 352.23128662 -236.5625 352.22265625 C-237.70702637 352.2170166 -238.85155273 352.21137695 -240.03076172 352.20556641 C-267.73835078 351.80901454 -291.01677735 340.32469938 -310.56640625 321.21875 C-326.29739857 304.71922065 -337.23708503 280.96511589 -337.8125 257.91015625 C-337.86277344 256.98074219 -337.91304688 256.05132812 -337.96484375 255.09375 C-338.70825516 231.33432135 -331.36204046 205.28679775 -315.00073814 187.54976082 C-314.5346596 187.05622549 -314.06858105 186.56269016 -313.58837891 186.05419922 C-312.81991607 185.23166562 -312.81991607 185.23166562 -312.03592873 184.39251518 C-304.70865603 176.60402546 -297.13753984 169.05020172 -289.5859375 161.48046875 C-288.7819817 160.67368557 -287.97802589 159.86690239 -287.14970779 159.03567123 C-282.90684098 154.77794137 -278.66120806 150.52299405 -274.41308594 146.27050781 C-270.05125849 141.90316979 -265.69881249 137.52660424 -261.34842491 133.14787483 C-257.97327993 129.7540512 -254.59139205 126.36700751 -251.20766068 122.98174667 C-249.60014639 121.37122452 -247.99511066 119.75822416 -246.39271164 118.14261246 C-229.21242153 100.83063192 -229.21242153 100.83063192 -221.8125 96.91015625 C-221.1525 96.91015625 -220.4925 96.91015625 -219.8125 96.91015625 C-219.56363037 96.18997314 -219.31476074 95.46979004 -219.05834961 94.7277832 C-214.97212095 85.48632427 -206.21895327 77.8451355 -199.17358398 70.6809082 C-198.21377062 69.69772089 -197.26304794 68.70558687 -196.32104492 67.70532227 C-188.48101547 59.38427644 -188.48101547 59.38427644 -184.41625977 58.22924805 C-181.52662357 58.17876979 -179.34998516 58.58072986 -176.875 60.09765625 C-175.47435367 62.48699411 -174.94503716 64.12687598 -174.8125 66.91015625 C-177.21069322 72.0754955 -181.4056129 75.64151849 -185.4375 79.53515625 C-205.56131689 99.36422582 -218.37307914 120.43912563 -219.125 149.22265625 C-218.71661236 172.59684306 -209.66788281 192.74657354 -193.8125 209.91015625 C-183.50315278 219.69529937 -169.70156834 227.55699068 -155.8125 230.91015625 C-151.74416347 230.53121675 -149.82844197 228.27255864 -147.046875 225.4375 C-146.15742188 224.53837891 -145.26796875 223.63925781 -144.3515625 222.71289062 C-143.43117188 221.76736328 -142.51078125 220.82183594 -141.5625 219.84765625 C-140.61788327 218.88798652 -139.67257805 217.92899396 -138.7265625 216.97070312 C-136.41500828 214.62376797 -134.1107366 212.27012234 -131.8125 209.91015625 C-132.73393799 209.86262207 -133.65537598 209.81508789 -134.60473633 209.76611328 C-152.15999622 208.71512045 -167.4395526 202.9135723 -179.8125 189.91015625 C-190.25829444 177.19638139 -195.63801478 161.82466244 -195.15625 145.32421875 C-193.60920897 129.95928856 -188.16197077 117.13690087 -177.4909668 105.95678711 C-176.87813937 105.30791251 -176.26531195 104.65903791 -175.63391399 103.99050045 C-168.80897158 96.79524512 -161.83415322 89.74879923 -154.83203125 82.7265625 C-154.15251593 82.0442198 -153.4730006 81.3618771 -152.77289391 80.65885735 C-149.19018957 77.0613472 -145.60476758 73.46657389 -142.0168457 69.87426758 C-138.34571005 66.19761311 -134.68398263 62.51173248 -131.02426624 58.82371616 C-128.17152566 55.9522586 -125.31200809 53.08762165 -122.4506588 50.2247448 C-121.09795343 48.86904291 -119.74771231 47.51087698 -118.40015602 46.15005684 C-102.56041466 30.16531192 -86.85448291 18.09221963 -63.3125 17.53515625 C-46.23564261 17.97302439 -31.47944376 24.03543934 -19.4375 36.09375 C-7.77759591 48.60385543 -2.17863542 64.29915454 -2.5 81.3515625 C-4.41499351 103.15855113 -15.51004223 117.48290928 -31.28327942 131.74966431 C-35.06848819 135.18400305 -38.80060262 138.67384422 -42.53173828 142.16674805 C-44.46358165 143.9491016 -46.41887499 145.70637961 -48.39697266 147.43725586 C-61.46816597 158.76148161 -61.46816597 158.76148161 -67.26855469 174.50830078 C-67.63883057 180.64079609 -67.47879374 186.68633894 -66.93051147 192.80348206 C-66.79824126 196.2855203 -67.2333896 199.48038394 -67.8125 202.91015625 C-58.92796964 194.09534878 -50.05171657 185.27229706 -41.18573666 176.43882942 C-37.067994 172.33669642 -32.94752725 168.23738196 -28.82055664 164.14453125 C-24.83277114 160.18950687 -20.85250702 156.22705157 -16.87719917 152.25948715 C-15.36450489 150.75230638 -13.84918666 149.24775412 -12.33112907 147.74597549 C-2.54833912 138.06387559 6.21749282 128.67669546 12.375 116.22265625 C12.70959229 115.54912109 13.04418457 114.87558594 13.38891602 114.18164062 C22.7747071 94.54536699 23.93735643 71.42515346 16.86328125 50.84375 C8.86038792 29.29315909 -5.97592192 11.85633341 -26.8125 1.91015625 C-49.09679027 -8.09269909 -71.58825624 -8.61696057 -94.59765625 -0.8046875 C-104.9899021 3.32689197 -114.07786401 9.26850206 -122.1875 16.97265625 C-124.94028966 19.46991269 -125.70955937 19.8912838 -129.5625 20.59765625 C-133.35531212 19.79533061 -134.68412503 19.1452862 -136.8125 15.91015625 C-137.6051141 12.73969984 -137.41630699 10.92158745 -135.73046875 8.09765625 C-121.83184668 -9.3547907 -97.03514482 -19.26101148 -75.4296875 -21.80859375 C-48.49276669 -23.90304116 -20.95492072 -17.88750634 0 0 Z M-104.63671875 54.37109375 C-105.50899612 55.24287262 -106.3812735 56.11465149 -107.27998352 57.0128479 C-109.10099554 58.83618051 -110.91836519 60.66315771 -112.73217773 62.49365234 C-115.5221934 65.30753953 -118.32559107 68.10757658 -121.13085938 70.90625 C-122.90444372 72.68540288 -124.67725901 74.46532282 -126.44921875 76.24609375 C-127.28966232 77.08562592 -128.1301059 77.92515808 -128.99601746 78.79013062 C-129.76134293 79.5649881 -130.5266684 80.33984558 -131.31518555 81.13818359 C-131.992603 81.82020844 -132.67002045 82.50223328 -133.3679657 83.20492554 C-135.02795718 84.79202455 -135.02795718 84.79202455 -134.8125 86.91015625 C-134.10867188 87.17828125 -133.40484375 87.44640625 -132.6796875 87.72265625 C-120.20247279 92.67444903 -108.89370057 98.96087995 -98.8125 107.91015625 C-98.13960937 108.50054687 -97.46671875 109.0909375 -96.7734375 109.69921875 C-86.59547118 119.2283904 -79.97818616 130.77522806 -74.40625 143.390625 C-72.92180058 146.92179143 -72.92180058 146.92179143 -70.8125 149.91015625 C-65.03073691 144.26834363 -59.26605897 138.60981303 -53.52155876 132.93008804 C-50.85269144 130.29233336 -48.17862729 127.66036844 -45.49121094 125.04150391 C-42.89057553 122.50678549 -40.30552974 119.95704223 -37.72995377 117.39687347 C-36.75219674 116.4300746 -35.76923536 115.46850567 -34.78069687 114.51273346 C-25.59131485 105.61560994 -18.72001738 95.38632612 -17.4765625 82.40234375 C-17.31802009 67.72131619 -20.78483788 56.53989303 -30.84375 45.7265625 C-41.56884376 35.44834765 -53.01746492 32.37012567 -67.44921875 32.640625 C-83.14270735 33.33033667 -94.11148856 43.72738711 -104.63671875 54.37109375 Z M-153.89453125 103.46875 C-154.35357346 103.93249527 -154.81261566 104.39624054 -155.28556824 104.8740387 C-156.74414161 106.35391601 -158.18414593 107.85054323 -159.625 109.34765625 C-160.61283044 110.35199639 -161.60175161 111.35526497 -162.59179688 112.35742188 C-167.25412478 116.22983288 -167.25412478 116.22983288 -169.8125 120.91015625 C-168.56855469 121.0803125 -167.32460937 121.25046875 -166.04296875 121.42578125 C-147.79784947 124.03117841 -131.02522898 129.06813097 -119.3125 144.41015625 C-108.43131677 159.25636299 -106.46695177 175.01436481 -107.8125 192.91015625 C-111.60004802 214.60247671 -128.28710693 228.55676508 -143.0546875 243.390625 C-143.82704868 244.16706171 -144.59940987 244.94349842 -145.39517593 245.74346352 C-149.47681719 249.8458323 -153.56163225 253.94501112 -157.64892578 258.04174805 C-161.84547915 262.24939426 -166.03021153 266.46859884 -170.21246147 270.69045544 C-173.45560844 273.95983717 -176.70769608 277.22021585 -179.96219254 280.47829628 C-181.50837355 282.029318 -183.05120323 283.58368876 -184.59045029 285.14159203 C-194.52354761 295.18765412 -203.74709029 304.48636997 -217.5625 308.78515625 C-218.77421875 309.17445313 -219.9859375 309.56375 -221.234375 309.96484375 C-237.41238481 314.23894678 -254.27258063 311.73185749 -268.93359375 303.79296875 C-281.53768719 295.54985744 -290.11830063 284.22864376 -294.8125 269.91015625 C-295.03808594 269.24113281 -295.26367188 268.57210937 -295.49609375 267.8828125 C-299.6704513 252.88391399 -296.99384326 235.4639501 -289.66465759 221.98440552 C-283.99343545 212.57119436 -276.12062429 205.1087578 -268.08984375 197.73046875 C-266.06137736 195.81852751 -264.04362526 193.89538872 -262.02539062 191.97265625 C-258.8924602 188.9892937 -255.74854531 186.02293237 -252.54418945 183.11621094 C-239.37868705 172.02975194 -239.37868705 172.02975194 -232.46337891 157.09399414 C-232.28067716 152.70307078 -232.74154947 148.53857267 -233.49917603 144.21925354 C-234.00682871 140.4780159 -233.6663116 136.84063368 -233.3125 133.09765625 C-233.2196875 131.89496094 -233.126875 130.69226563 -233.03125 129.453125 C-232.9590625 128.61394531 -232.886875 127.77476562 -232.8125 126.91015625 C-237.33727827 130.70397749 -241.66929452 134.61499214 -245.84863281 138.78515625 C-246.40744644 139.33900497 -246.96626007 139.8928537 -247.54200745 140.46348572 C-249.36929251 142.27630326 -251.192788 144.09286674 -253.015625 145.91015625 C-253.64639702 146.53810089 -254.27716904 147.16604553 -254.92705536 147.8130188 C-258.26869718 151.13972674 -261.60749376 154.46925862 -264.94384766 157.80126953 C-268.35361256 161.20557444 -271.77254268 164.60051184 -275.19380569 167.99325562 C-277.8552846 170.63591137 -280.50983823 173.28544572 -283.16268158 175.93676758 C-284.4182108 177.18931126 -285.67619 178.439405 -286.93686676 179.68676758 C-302.83736657 195.36314036 -302.83736657 195.36314036 -314.25 214.34765625 C-314.72481812 215.40243164 -314.72481812 215.40243164 -315.20922852 216.47851562 C-319.38684084 226.0851931 -322.35996015 236.40336157 -322.8125 246.91015625 C-322.85246094 247.66039062 -322.89242187 248.410625 -322.93359375 249.18359375 C-323.58360514 272.81341953 -314.35536131 294.01791564 -298.65625 311.28125 C-283.59905469 327.00117397 -262.62715751 336.72995263 -240.80493164 337.25415039 C-212.6974776 337.53370609 -191.88687379 327.70826342 -171.88502312 308.23834229 C-168.04890273 304.46428292 -164.2366334 300.66674055 -160.4296875 296.86328125 C-158.76317205 295.2032072 -157.09651291 293.54327737 -155.42971802 291.88348389 C-151.9517125 288.41739443 -148.47780456 284.94725693 -145.00634766 281.47460938 C-140.58427705 277.05233547 -136.14859527 272.64399364 -131.70925713 268.23906326 C-128.26715665 264.81932582 -124.83431218 261.39040861 -121.40390396 257.95894623 C-119.77345187 256.33083448 -118.1398018 254.70591811 -116.50274277 253.08444977 C-96.32939508 233.08539086 -81.66709722 212.03600933 -81.5 182.59765625 C-81.5 157.86052559 -90.25945354 137.54838369 -107.5 119.72265625 C-117.42633744 109.84365471 -132.09509911 100.54749569 -146.15893555 98.58227539 C-149.93416377 99.04875175 -151.2601121 100.77316359 -153.89453125 103.46875 Z M-178.8125 137.91015625 C-181.32598305 149.84920073 -179.77210037 162.17212698 -173.37890625 172.6875 C-164.90759106 184.70789486 -154.95832531 191.63281401 -140.5 194.34375 C-134.94221661 195.12531329 -128.08550903 195.83849791 -123.08203125 192.890625 C-121.01386266 189.66428199 -121.32670909 186.18383184 -121.375 182.47265625 C-121.38329834 181.66441406 -121.39159668 180.85617187 -121.40014648 180.0234375 C-121.76881032 166.84075355 -126.94468981 156.23869421 -136.5 147.16015625 C-148.89895891 137.0155535 -163.50088279 133.53540848 -178.8125 137.91015625 Z M-234.79980469 184.60693359 C-235.62115906 185.41552826 -236.44251343 186.22412292 -237.28875732 187.05722046 C-238.17831116 187.94454865 -239.06786499 188.83187683 -239.984375 189.74609375 C-240.89954895 190.6546109 -241.8147229 191.56312805 -242.75762939 192.49917603 C-244.70139181 194.43093605 -246.64094652 196.36681454 -248.578125 198.30517578 C-251.04017163 200.76742391 -253.51558038 203.21572168 -255.99497604 205.66048241 C-258.37558108 208.01322045 -260.74148248 210.38056253 -263.109375 212.74609375 C-263.99083191 213.61317963 -264.87228882 214.4802655 -265.78045654 215.37362671 C-275.71767389 225.38416418 -282.81443003 236.94701688 -283.125 251.34765625 C-282.99791674 264.93144461 -278.16207413 275.37877691 -269 285.16015625 C-259.95381583 293.82726222 -247.82514907 298.33025103 -235.359375 298.12109375 C-220.15257543 296.86163489 -209.48099187 289.36234926 -199.11328125 278.69921875 C-198.14362044 277.72020421 -197.17282877 276.74230858 -196.20097351 275.76547241 C-193.67614491 273.22177509 -191.16671466 270.66342388 -188.66046143 268.10144043 C-186.08831685 265.47766279 -183.5015212 262.86841307 -180.91601562 260.2578125 C-175.86726824 255.15583403 -170.83473959 250.03824493 -165.8125 244.91015625 C-168.19445339 243.32218733 -170.21406551 242.22271269 -172.8046875 241.09765625 C-197.96003937 229.89357615 -215.63770633 212.20047876 -226.8125 186.91015625 C-227.50782271 184.91993747 -228.1841996 182.92253868 -228.8125 180.91015625 C-231.80857127 180.91015625 -232.69601376 182.52530787 -234.79980469 184.60693359 Z " fill="#487FFF" transform="translate(406.8125,90.08984375)"/>
<path d="M0 0 C3.25 1.125 3.25 1.125 5.1875 2.8125 C6.59589562 5.87783164 6.72772045 7.78095685 6.25 11.125 C4.12326045 14.46701929 2.1178628 16.9873933 -1.75 18.125 C-4.78536365 17.93916141 -6.97262247 17.56551393 -9.625 16.0625 C-11.51845309 12.80155301 -11.68103911 9.68840147 -10.75 6.125 C-7.82651853 1.95106186 -5.10038387 0.1700128 0 0 Z " fill="#50AEFF" transform="translate(254.75,118.875)"/>
</svg>
