<?xml version="1.0" encoding="UTF-8"?>
<svg version="1.1" xmlns="http://www.w3.org/2000/svg" width="512" height="512">
<path d="M0 0 C0.80374636 -0.00436032 1.60749272 -0.00872064 2.43559504 -0.0132131 C5.121808 -0.02413865 7.80750438 -0.01376002 10.49371338 -0.00342751 C12.44182472 -0.00688513 14.3899341 -0.0116504 16.3380394 -0.01760924 C21.68611583 -0.03013442 27.03403168 -0.02394188 32.38210869 -0.01465058 C38.15178389 -0.00786669 43.92143137 -0.01833806 49.69110107 -0.02659035 C60.99184328 -0.03993689 72.29252574 -0.03704582 83.5932703 -0.02835242 C92.77684584 -0.02157993 101.96040462 -0.02065728 111.14398193 -0.02392387 C112.45055874 -0.02438357 113.75713554 -0.02484327 115.10330558 -0.0253169 C117.75751146 -0.02627607 120.41171734 -0.02724871 123.06592321 -0.02823468 C147.25023858 -0.03684863 171.43452375 -0.02792376 195.61883396 -0.01220688 C217.69335549 0.00202979 239.76782511 0.00075591 261.84234619 -0.01358986 C286.64679395 -0.02965589 311.45121258 -0.03596727 336.25566483 -0.02675307 C338.9001592 -0.02579741 341.54465357 -0.0248543 344.18914795 -0.02392387 C346.14090962 -0.02322963 346.14090962 -0.02322963 348.13210082 -0.02252137 C357.30566463 -0.01993006 366.47921004 -0.02430553 375.652771 -0.03136253 C386.83080447 -0.03977243 398.00877473 -0.0375081 409.18680096 -0.0215203 C414.8910336 -0.01363076 420.59516081 -0.01055771 426.2993927 -0.02046776 C431.52022584 -0.02940088 436.74085572 -0.02450446 441.9616704 -0.0085351 C443.85119567 -0.00518146 445.74073809 -0.00689444 447.63025236 -0.01416247 C450.19812247 -0.0232828 452.76529608 -0.01393049 455.33312988 0 C456.06707804 -0.0070235 456.8010262 -0.014047 457.55721521 -0.02128333 C465.60724145 0.06602359 472.0423394 2.83421144 477.90093994 8.38142967 C483.55723682 14.77604849 484.38270561 21.56752687 484.11187744 29.93611717 C483.12259497 37.5813615 479.64036335 43.19812174 473.80328369 48.12361717 C467.72631266 51.68981041 462.2413191 52.82115459 455.33312988 52.75504684 C454.52938352 52.75940717 453.72563716 52.76376749 452.89753485 52.76825994 C450.21132188 52.7791855 447.5256255 52.76880686 444.8394165 52.75847435 C442.89130516 52.76193197 440.94319578 52.76669724 438.99509048 52.77265608 C433.64701406 52.78518126 428.2990982 52.77898872 422.95102119 52.76969743 C417.18134599 52.76291354 411.41169852 52.7733849 405.64202881 52.78163719 C394.3412866 52.79498374 383.04060414 52.79209266 371.73985958 52.78339927 C362.55628405 52.77662677 353.37272526 52.77570413 344.18914795 52.77897072 C342.88257115 52.77943042 341.57599434 52.77989012 340.2298243 52.78036375 C337.57561842 52.78132291 334.92141254 52.78229555 332.26720667 52.78328152 C308.0828913 52.79189547 283.89860614 52.7829706 259.71429592 52.76725373 C237.63977439 52.75301705 215.56530477 52.75429094 193.49078369 52.7686367 C168.68633593 52.78470273 143.8819173 52.79101412 119.07746506 52.78179991 C116.43297069 52.78084426 113.78847631 52.77990114 111.14398193 52.77897072 C109.19222026 52.77827648 109.19222026 52.77827648 107.20102906 52.77756821 C98.02746525 52.7749769 88.85391985 52.77935238 79.68035889 52.78640938 C68.50232541 52.79481927 57.32435515 52.79255494 46.14632893 52.77656715 C40.44209628 52.76867761 34.73796907 52.76560456 29.03373718 52.7755146 C23.81290405 52.78444772 18.59227416 52.77955131 13.37145948 52.76358195 C11.48193421 52.7602283 9.5923918 52.76194129 7.70287752 52.76920931 C5.13500741 52.77832964 2.5678338 52.76897734 0 52.75504684 C-1.10092224 52.76558209 -1.10092224 52.76558209 -2.22408533 52.77633017 C-10.27411157 52.68902326 -16.70920952 49.9208354 -22.56781006 44.37361717 C-28.22410694 37.97899836 -29.04957572 31.18751998 -28.77874756 22.81892967 C-27.78946509 15.17368535 -24.30723347 9.5569251 -18.47015381 4.63142967 C-12.39318278 1.06523644 -6.90818922 -0.06610774 0 0 Z " fill="#000000" transform="translate(28.33343505859375,229.6224765777588)"/>
<path d="M0 0 C1.40378908 -0.00346107 2.80757544 -0.00822864 4.21135616 -0.01418173 C8.0502563 -0.02665983 11.88893157 -0.020536 15.72783232 -0.01122308 C19.87513949 -0.00441979 24.02240869 -0.01492015 28.16970825 -0.02316284 C36.28692602 -0.03648873 44.40406047 -0.03362754 52.52128148 -0.02492492 C59.11949041 -0.01814428 65.71767603 -0.0172333 72.31588745 -0.02049637 C73.25569236 -0.02095607 74.19549726 -0.02141577 75.16378111 -0.0218894 C77.07309573 -0.02284859 78.98241034 -0.02382123 80.89172494 -0.02480717 C98.7869884 -0.03335771 116.68220571 -0.0235322 134.5774616 -0.00740607 C149.92576899 0.0059968 165.2740083 0.00366862 180.62231445 -0.01016235 C198.45441718 -0.02622409 216.2864795 -0.03253377 234.11858845 -0.02332556 C236.0208009 -0.02236994 237.92301336 -0.02142682 239.82522583 -0.02049637 C241.22904012 -0.01980213 241.22904012 -0.01980213 242.66121429 -0.01909386 C249.24997265 -0.01650576 255.83870533 -0.0208711 262.42745972 -0.02793503 C270.45913649 -0.03635682 278.49072531 -0.0340556 286.52239203 -0.0180928 C290.61870776 -0.01021922 294.71487698 -0.00710286 298.81119156 -0.01704025 C302.56406346 -0.02600665 306.3166536 -0.02102252 310.06950009 -0.0051076 C312.06364198 -0.00019101 314.05780356 -0.00993889 316.05192471 -0.02027929 C325.79158453 0.04339098 334.81954567 1.3283507 342.07055664 8.38095093 C348.29194462 16.61703709 348.78685899 24.31058262 348.07055664 34.38095093 C346.42059168 41.47134089 340.80375389 46.26233031 335.07055664 50.38095093 C331.26698452 52.20543216 328.24477896 52.63258667 324.04281902 52.63821983 C322.82557571 52.64466873 321.6083324 52.65111762 320.35420293 52.65776193 C319.00669863 52.65481977 317.65919474 52.65168434 316.31169128 52.64837646 C314.87764459 52.65211322 313.44359993 52.65671484 312.0095585 52.66210711 C308.06852912 52.67434945 304.12758455 52.6740752 300.18654048 52.67171836 C295.9362519 52.6713105 291.68599061 52.68234635 287.43571472 52.6918335 C279.10841964 52.70845125 270.78115287 52.71394339 262.4538426 52.71505825 C255.68533771 52.71600836 248.91684216 52.7201168 242.14834023 52.7264595 C222.96094164 52.74407406 203.77356544 52.75329804 184.58615872 52.75179856 C183.55161306 52.75171864 182.5170674 52.75163873 181.45117188 52.7515564 C180.41536393 52.75147464 179.37955598 52.75139287 178.31235991 52.75130863 C161.52447454 52.75049568 144.73667889 52.76963514 127.94881948 52.79783313 C110.71366702 52.82655413 93.47855832 52.84037385 76.24338132 52.83864558 C66.566133 52.8379814 56.88897872 52.84348571 47.21175194 52.86500168 C38.97243097 52.88320316 30.73324668 52.88756932 22.49391433 52.87398283 C18.29036469 52.86744794 14.08707733 52.86735466 9.88355255 52.88468933 C6.03367623 52.90040228 2.18427054 52.89757494 -1.66559418 52.88012107 C-3.05656245 52.87704722 -4.44756569 52.88069816 -5.83849273 52.89184122 C-14.87682245 52.95944039 -20.80959945 52.26840763 -28.13647461 46.70516968 C-34.28496282 40.43700287 -36.08591593 35.83280465 -36.42944336 27.06845093 C-36.24205608 19.16695397 -34.74031912 13.27467181 -29.13256836 7.54501343 C-20.40393666 0.38753543 -10.9158525 -0.05660353 0 0 Z " fill="#000000" transform="translate(163.929443359375,75.61904907226563)"/>
<path d="M0 0 C1.50377344 -0.00935994 1.50377344 -0.00935994 3.03792614 -0.01890898 C6.37732911 -0.03478835 9.71599704 -0.02225418 13.05540466 -0.00964355 C15.45751876 -0.01506686 17.85962952 -0.02219069 20.26173401 -0.03088379 C26.0966454 -0.04720509 31.93132553 -0.04485061 37.76624388 -0.03323323 C42.50997094 -0.02418122 47.25364035 -0.02298251 51.99737358 -0.02732849 C53.01202505 -0.02824789 53.01202505 -0.02824789 54.04717452 -0.02918586 C55.42153988 -0.03046482 56.79590523 -0.03176168 58.17027055 -0.03307623 C71.04146231 -0.04446787 83.91253989 -0.03139017 96.78371292 -0.00987476 C107.81785609 0.00799903 118.85183093 0.00488712 129.88597107 -0.0135498 C142.71422419 -0.03497462 155.54237742 -0.04337363 168.37064594 -0.03110075 C169.73950794 -0.02982661 171.10836995 -0.02856913 172.47723198 -0.02732849 C173.48737162 -0.02640284 173.48737162 -0.02640284 174.51791813 -0.02545848 C179.25418347 -0.02201071 183.99038521 -0.02782146 188.7266407 -0.0372467 C195.1051512 -0.04880789 201.48334401 -0.04077398 207.86182022 -0.01766968 C210.20150793 -0.01238433 212.54122241 -0.01389333 214.88089943 -0.02272034 C218.07688407 -0.03366562 221.27185333 -0.01992338 224.46777344 0 C225.85353422 -0.01338433 225.85353422 -0.01338433 227.26729017 -0.02703905 C234.87606198 0.06484113 241.07101749 2.30321648 246.4828949 7.82043457 C252.82857333 14.73113916 253.22230394 20.67741828 253.0219574 29.90246582 C252.31315123 37.17166683 249.23663638 41.82723151 243.6703949 46.50793457 C236.14004463 51.91080783 230.25543012 52.65714591 221.13897705 52.64837646 C220.17395868 52.65134759 219.2089403 52.65431871 218.21467894 52.65737987 C214.97831051 52.66605728 211.74197912 52.66757431 208.50559998 52.66906738 C206.18614116 52.67369624 203.86668312 52.678721 201.54722595 52.68411255 C195.24333291 52.69723228 188.93945053 52.70368072 182.63554597 52.70812321 C178.69644862 52.71105472 174.75735417 52.71515968 170.81825829 52.71962738 C159.90383061 52.73173501 148.98940546 52.74211738 138.0749712 52.74550247 C137.37683856 52.74572204 136.67870592 52.7459416 135.95941774 52.74616782 C135.25965016 52.7463861 134.55988258 52.74660438 133.83890992 52.74682927 C132.42100322 52.74727273 131.00309652 52.74771929 129.58518982 52.74816895 C128.53020219 52.74850109 128.53020219 52.74850109 127.45390167 52.74883994 C116.06369273 52.75278593 104.67354783 52.77023485 93.28336362 52.79352847 C81.57848605 52.81727166 69.87364058 52.82970568 58.16873854 52.83087039 C51.6012224 52.83191804 45.03379662 52.83781751 38.46630287 52.85569 C32.28653621 52.87218016 26.10692775 52.87432147 19.92714691 52.86555099 C17.66247064 52.86478113 15.39778583 52.8691167 13.13313103 52.87900925 C10.0341437 52.89174946 6.93571492 52.88584038 3.83673096 52.87542725 C2.94711522 52.88348365 2.05749949 52.89154006 1.14092571 52.89984059 C-8.51207203 52.82432733 -16.40773498 50.59797409 -23.41163635 43.80480957 C-28.52781182 37.67790291 -29.99611 30.9711372 -29.6421051 23.10559082 C-28.73052929 15.52811686 -25.31612749 9.33773908 -19.3296051 4.50793457 C-12.88302788 0.85013932 -7.32918044 -0.07096002 0 0 Z " fill="#000000" transform="translate(259.32960510253906,383.4920654296875)"/>
</svg>
