<?xml version="1.0" encoding="UTF-8"?>
<svg version="1.1" xmlns="http://www.w3.org/2000/svg" width="512" height="512">
<path d="M0 0 C2.4934634 2.27147889 4.93581338 4.5942609 7.37231445 6.92651367 C7.86973145 7.39669922 8.36714844 7.86688477 8.87963867 8.35131836 C16.87519925 15.93849663 23.87298056 24.02604373 30.37231445 32.92651367 C30.78690918 33.49144531 31.20150391 34.05637695 31.62866211 34.63842773 C63.12309354 78.15392038 76.00760248 134.28996932 67.85107422 187.31494141 C61.84059493 221.64116242 48.20148098 254.63100528 26.37231445 281.92651367 C25.56407227 282.9397168 24.75583008 283.95291992 23.9230957 284.99682617 C-10.29874879 327.03894767 -58.89332355 353.26610633 -112.62768555 359.92651367 C-113.63057617 360.05799805 -114.6334668 360.18948242 -115.66674805 360.32495117 C-168.67652227 365.97729021 -223.0820667 349.60965643 -264.58862305 316.44213867 C-269.79481392 312.13264392 -274.74885801 307.59708937 -279.62768555 302.92651367 C-280.18601074 302.4007373 -280.74433594 301.87496094 -281.31958008 301.33325195 C-295.2034079 288.21665771 -305.98846612 273.36890953 -315.62768555 256.92651367 C-316.16087402 256.02497559 -316.16087402 256.02497559 -316.70483398 255.10522461 C-340.31574825 214.68954696 -349.13300902 160.68555069 -338.62768555 114.92651367 C-338.42900879 114.0009668 -338.23033203 113.07541992 -338.02563477 112.12182617 C-333.62177453 91.80139243 -326.38196418 73.24196148 -316.62768555 54.92651367 C-316.02569336 53.77022461 -315.42370117 52.61393555 -314.8034668 51.42260742 C-307.20310686 37.41691269 -297.14907154 24.86651437 -286.08618164 13.4362793 C-285.07213534 12.38658691 -284.06513233 11.33006324 -283.0637207 10.26831055 C-252.9171606 -21.66957994 -211.02072353 -42.66554034 -167.62768555 -49.07348633 C-166.87181152 -49.18772949 -166.1159375 -49.30197266 -165.3371582 -49.41967773 C-106.20389457 -57.95398454 -44.52102122 -39.83911932 0 0 Z M-250.15551758 33.50561523 C-251.64152905 34.93987506 -253.14728638 36.35109144 -254.6550293 37.76245117 C-284.21567268 65.86999305 -301.67556911 107.81027749 -302.83081055 148.37963867 C-303.36740009 187.89368544 -292.41224732 224.29499606 -268.62768555 255.92651367 C-265.29472799 254.47446475 -263.10533988 252.65305434 -260.54349899 250.08842278 C-259.73435382 249.2832597 -258.92520864 248.47809662 -258.09154391 247.64853466 C-256.7666438 246.31489602 -256.7666438 246.31489602 -255.41497803 244.95431519 C-254.46324845 244.00345768 -253.51107953 243.05303975 -252.55850911 242.1030246 C-249.9406712 239.48966397 -247.32911914 236.87009921 -244.71853542 234.24949479 C-241.90283426 231.42516693 -239.0813662 228.60661068 -236.2605896 225.78735352 C-231.37368457 220.90149783 -226.49045845 216.01198992 -221.60970306 211.1199913 C-214.55292228 204.04696521 -207.49063365 196.97945987 -200.42698303 189.91329528 C-188.96718219 178.44911582 -177.51185598 166.98047596 -166.05932617 155.5090332 C-154.93341262 144.36476519 -143.80540308 133.22259702 -132.67456055 122.08325195 C-131.64562341 121.05352665 -131.64562341 121.05352665 -130.59589967 120.00299881 C-127.15468022 116.55916932 -123.71341945 113.11538112 -120.27213812 109.67161345 C-91.71757663 81.09631426 -63.17026917 52.5137767 -34.62768555 23.92651367 C-36.13911691 20.70045989 -37.28774243 19.15856123 -40.3112793 17.22729492 C-41.0640918 16.74470215 -41.8169043 16.26210937 -42.5925293 15.76489258 C-43.81649414 15.00958252 -43.81649414 15.00958252 -45.06518555 14.23901367 C-45.91338867 13.71227051 -46.7615918 13.18552734 -47.63549805 12.64282227 C-111.44754431 -26.22644299 -196.00428306 -18.92681966 -250.15551758 33.50561523 Z M-7.62768555 49.92651367 C-84.51768555 126.81651367 -161.40768555 203.70651367 -240.62768555 282.92651367 C-238.7519383 286.67800817 -238.30327969 287.48075413 -235.0925293 289.62573242 C-234.37460205 290.10824463 -233.6566748 290.59075684 -232.91699219 291.08789062 C-232.140896 291.59151123 -231.3647998 292.09513184 -230.56518555 292.61401367 C-229.35560181 293.40521606 -229.35560181 293.40521606 -228.12158203 294.21240234 C-190.50644516 318.45832593 -145.75632824 327.86304557 -101.62768555 318.92651367 C-70.743453 312.0179036 -42.80968443 297.37391469 -20.10766602 275.35961914 C-18.73162275 274.0271589 -17.33850465 272.71239426 -15.9440918 271.39916992 C8.04202726 248.31112709 23.95342455 215.6306591 29.37231445 182.92651367 C29.57598633 181.74959961 29.7796582 180.57268555 29.98950195 179.36010742 C36.3502895 136.88224539 25.49579974 93.64210415 1.05981445 58.55151367 C0.2860144 57.43486328 0.2860144 57.43486328 -0.50341797 56.2956543 C-0.99430908 55.60922852 -1.4852002 54.92280273 -1.9909668 54.21557617 C-2.42707275 53.60407715 -2.86317871 52.99257812 -3.3125 52.36254883 C-4.67575768 50.64047109 -4.67575768 50.64047109 -7.62768555 49.92651367 Z " fill="#44C550" transform="translate(391.627685546875,101.073486328125)"/>
<path d="M0 0 C13.55945985 4.8462932 24.0591399 18.51206902 30.34570312 30.83837891 C36.41666345 45.63744451 37.592902 61.6213135 31.59570312 76.72753906 C22.81058757 96.63131648 6.87068284 108.31281185 -12.65429688 116.83837891 C-17.47974811 118.65701631 -21.48335995 119.83837891 -26.65429688 119.83837891 C-26.63334961 120.43263672 -26.61240234 121.02689453 -26.59082031 121.63916016 C-26.50687833 124.37205596 -26.45539406 127.10467948 -26.40429688 129.83837891 C-26.37078125 130.77294922 -26.33726562 131.70751953 -26.30273438 132.67041016 C-26.2153949 138.91518274 -26.98948184 143.66679504 -30.65429688 148.83837891 C-34.82967007 152.53927788 -39.07670632 154.09950206 -44.65429688 153.83837891 C-48.98210349 152.94921137 -51.89306136 151.59961442 -55.02929688 148.46337891 C-58.6952747 142.54141473 -58.91145442 137.84215829 -58.77929688 131.02587891 C-58.77027344 130.14222656 -58.76125 129.25857422 -58.75195312 128.34814453 C-58.72849324 126.17810531 -58.69262553 124.00820643 -58.65429688 121.83837891 C-59.51410156 121.67982422 -60.37390625 121.52126953 -61.25976562 121.35791016 C-76.87454634 118.27582149 -91.74140227 112.7585323 -103.65429688 101.83837891 C-99.12437891 96.40104835 -94.31135472 91.37378959 -89.27929688 86.40087891 C-88.54324219 85.66933594 -87.8071875 84.93779297 -87.04882812 84.18408203 C-85.25293613 82.39985168 -83.45473702 80.61801767 -81.65429688 78.83837891 C-80.65011719 79.38107422 -79.6459375 79.92376953 -78.61132812 80.48291016 C-61.66873528 89.43009871 -46.46958616 92.23034175 -27.72851562 87.02587891 C-16.66856025 83.27143861 -6.40515614 77.38981511 -0.27929688 67.15087891 C2.96113936 60.54537428 3.6972858 53.85185722 1.32226562 46.79931641 C-4.22489401 34.69363655 -12.77659136 29.14415599 -24.65429688 23.83837891 C-22.17286543 18.02275886 -17.21685771 13.95027095 -12.84179688 9.52587891 C-11.48731445 8.10952148 -11.48731445 8.10952148 -10.10546875 6.66455078 C-9.22826172 5.77703125 -8.35105469 4.88951172 -7.44726562 3.97509766 C-6.64828857 3.1574292 -5.84931152 2.33976074 -5.02612305 1.49731445 C-2.65429688 -0.16162109 -2.65429688 -0.16162109 0 0 Z " fill="#44C550" transform="translate(298.654296875,252.16162109375)"/>
<path d="M0 0 C4.73944996 4.2008761 6.86546662 9.07029639 7.359375 15.375 C7.42475811 17.06188428 7.47147925 18.74959003 7.5 20.4375 C7.52964844 21.30761719 7.55929687 22.17773438 7.58984375 23.07421875 C7.65975408 25.19483216 7.70723116 27.31616563 7.75 29.4375 C8.76578125 29.66824219 9.7815625 29.89898437 10.828125 30.13671875 C40.9077562 37.17413429 40.9077562 37.17413429 47.75 47.4375 C40.49 54.6975 33.23 61.9575 25.75 69.4375 C24.1 68.7775 22.45 68.1175 20.75 67.4375 C18.44208556 66.57101984 16.12921405 65.71767015 13.8125 64.875 C12.62785156 64.44058594 11.44320312 64.00617188 10.22265625 63.55859375 C-3.31187837 59.18917706 -18.72379293 61.19279185 -31.50390625 67.03125 C-40.48992955 71.632912 -49.11086615 77.80083526 -53.25 87.375 C-55.43680931 94.57860713 -55.02908539 101.4896422 -51.6328125 108.2109375 C-46.68709294 116.17438426 -40.49225663 121.13058312 -32.25 125.4375 C-33.7891801 129.10502005 -36.00485452 131.42330573 -38.8203125 134.203125 C-39.71621094 135.09257812 -40.61210937 135.98203125 -41.53515625 136.8984375 C-42.47230469 137.81882813 -43.40945312 138.73921875 -44.375 139.6875 C-45.32988637 140.63234856 -46.28431859 141.57765633 -47.23828125 142.5234375 C-49.57109087 144.83268338 -51.90844086 147.13713203 -54.25 149.4375 C-58.6415368 147.81288523 -61.67662012 145.62163765 -65.0625 142.4375 C-65.58658447 141.94765625 -66.11066895 141.4578125 -66.65063477 140.953125 C-78.81874933 129.36551107 -86.14691629 116.29498912 -87.5 99.296875 C-87.8027659 84.53703719 -83.22286848 71.17289839 -74.25 59.4375 C-73.69957031 58.71046875 -73.14914063 57.9834375 -72.58203125 57.234375 C-61.3033903 43.47876173 -45.21365866 35.75070298 -28.25 31.4375 C-27.26 31.4375 -26.27 31.4375 -25.25 31.4375 C-25.27094727 30.84324219 -25.29189453 30.24898437 -25.31347656 29.63671875 C-25.39741854 26.90382295 -25.44890281 24.17119943 -25.5 21.4375 C-25.53351563 20.50292969 -25.56703125 19.56835938 -25.6015625 18.60546875 C-25.68847325 12.39134988 -24.95822176 7.56012564 -21.25 2.4375 C-14.40191596 -3.12656828 -7.97553902 -3.83439376 0 0 Z " fill="#44C550" transform="translate(265.25,108.5625)"/>
</svg>
